<?xml version="1.0" standalone="no"?>
<!DOCTYPE svg PUBLIC "-//W3C//DTD SVG 20010904//EN"
 "http://www.w3.org/TR/2001/REC-SVG-20010904/DTD/svg10.dtd">
<svg version="1.0" xmlns="http://www.w3.org/2000/svg"
 width="700.000000pt" height="700.000000pt" viewBox="0 0 700.000000 700.000000"
 preserveAspectRatio="xMidYMid meet">
<metadata>
Created by potrace 1.14, written by Peter Selinger 2001-2017
</metadata>
<g transform="translate(0.000000,700.000000) scale(0.100000,-0.100000)"
fill="#000000" stroke="none">
<path d="M3375 6695 c-120 -26 -208 -72 -330 -174 -287 -241 -633 -442 -966
-561 -215 -78 -390 -115 -581 -125 -219 -12 -327 -54 -448 -175 -91 -91 -143
-188 -162 -303 -10 -58 -13 -329 -12 -1194 0 -615 4 -1156 8 -1203 10 -112 44
-339 62 -415 8 -33 17 -71 20 -85 18 -88 116 -348 179 -475 208 -422 517 -770
950 -1070 299 -207 808 -456 1195 -582 127 -42 226 -51 325 -30 65 14 326 105
420 147 22 10 67 29 100 43 106 45 307 143 419 206 60 34 113 61 118 61 4 0 8
5 8 10 0 6 5 10 11 10 17 0 282 178 379 255 442 348 745 762 903 1235 63 188
73 227 101 380 49 269 50 298 50 1565 0 1015 -2 1115 -17 1174 -51 191 -177
333 -357 404 -71 27 -118 35 -253 42 -49 2 -103 7 -120 10 -18 3 -49 7 -69 10
-65 7 -263 57 -328 82 -8 4 -17 7 -20 7 -97 24 -429 181 -585 278 -44 27 -89
55 -100 61 -28 17 -236 167 -251 180 -7 7 -26 22 -42 35 -17 13 -45 36 -64 53
-138 124 -359 183 -543 144z m205 -622 c25 -21 65 -54 90 -73 25 -19 47 -37
50 -40 3 -3 34 -26 70 -51 353 -248 663 -410 1006 -524 247 -82 417 -117 644
-131 52 -3 96 -7 98 -9 5 -4 2 -2170 -2 -2215 -2 -19 -7 -66 -10 -105 -4 -38
-9 -81 -12 -95 -3 -14 -8 -41 -10 -60 -10 -77 -65 -277 -104 -375 -67 -170
-152 -323 -265 -475 -57 -78 -87 -112 -200 -225 -303 -305 -735 -562 -1304
-775 l-124 -46 -141 51 c-419 154 -787 348 -1065 562 -316 245 -546 534 -680
857 -62 149 -119 354 -136 490 -1 12 -5 41 -9 66 -3 25 -8 79 -11 120 -6 79
-9 2220 -3 2225 2 1 46 5 99 9 546 33 1156 285 1724 712 61 46 123 95 138 109
40 38 77 55 96 45 9 -4 36 -26 61 -47z"/>
</g>
</svg>
